<?xml version="1.0" encoding="utf-8"?>
<!-- Generator: Moho 14.1 build 20231027 -->
<!DOCTYPE svg PUBLIC "-//W3C//DTD SVG 1.1//EN" "http://www.w3.org/Graphics/SVG/1.1/DTD/svg11.dtd">
<svg version="1.1" id="Frame_1" xmlns="http://www.w3.org/2000/svg" xmlns:xlink="http://www.w3.org/1999/xlink" width="1280px" height="720px">
<path id="S5" fill="#000001" fill-rule="evenodd" stroke="none" d="M -13.500 669.673 C -18.624 669.687 -23.908 668.322 -28.763 664.926 C -27.245 680.905 -28.639 703.039 -28.936 725.106 C -29.293 751.596 -29.643 778.085 -28.936 795.745 C 139.574 789.004 392.339 792.374 645.104 795.745 C 645.105 795.741 645.106 795.741 645.106 795.745 C 897.872 799.115 1150.639 802.485 1319.149 795.745 C 1318.443 778.085 1318.796 751.596 1319.149 725.106 C 1318.929 718.437 1319.129 708.436 1319.336 698.436 C 1319.526 689.223 1319.698 680.011 1319.522 673.866 C 1312.970 674.225 1306.366 673.758 1300.992 673.477 C 1298.131 673.327 1295.385 672.934 1292.697 672.396 C 1288.698 675.255 1285.165 673.180 1281.884 669.442 C 1275.071 667.116 1268.311 664.666 1261.523 662.376 C 1257.911 662.746 1253.473 662.895 1248.609 662.701 C 1243.595 668.307 1237.441 671.568 1228.545 671.021 C 1221.762 670.604 1212.956 667.822 1205.716 663.024 C 1201.747 663.276 1198.122 663.363 1195.062 663.315 C 1194.156 664.147 1192.949 664.734 1191.357 665.318 C 1186.123 667.241 1179.490 666.939 1172.944 666.480 C 1168.660 666.179 1164.484 666.092 1160.918 666.499 C 1159.726 666.635 1158.692 666.840 1157.747 667.093 C 1154.608 668.876 1151.496 669.885 1149.444 670.527 C 1147.970 670.988 1146.347 670.614 1144.513 669.546 C 1135.460 669.080 1126.066 667.778 1117.298 664.326 C 1114.060 668.762 1110.354 673.738 1105.991 674.266 C 1097.948 675.240 1091.699 669.886 1088.171 663.889 C 1086.977 663.945 1085.775 663.869 1084.576 663.858 C 1077.232 663.789 1069.880 664.092 1063.536 663.751 C 1053.935 671.728 1042.776 678.128 1032.281 679.965 C 1030.455 676.009 1028.067 672.133 1026.281 667.877 C 1020.494 667.312 1014.871 665.720 1009.186 664.241 C 1008.753 664.147 1007.898 663.914 1007.469 663.804 C 1006.216 663.897 1004.878 663.877 1003.476 663.878 C 994.097 668.840 983.861 670.404 971.533 666.606 C 970.193 666.193 968.254 665.236 966.329 663.610 C 957.559 664.115 948.775 663.758 941.035 663.327 C 936.744 667.700 928.779 670.062 921.635 670.216 C 921.096 670.465 920.449 670.604 919.640 670.619 C 917.200 670.806 912.318 671.041 909.878 671.223 C 909.876 671.221 909.876 671.221 909.877 671.223 C 902.067 671.585 893.728 672.146 886.909 672.074 C 875.996 671.958 866.525 668.365 858.051 663.061 C 856.422 664.148 854.594 664.925 852.878 665.904 C 852.512 666.113 852.076 666.369 851.605 666.672 C 848.743 668.515 844.557 671.233 841.394 669.871 C 838.745 668.731 834.810 666.391 831.820 662.790 C 830.239 662.856 828.646 662.735 827.054 662.704 C 815.521 662.476 803.991 662.543 796.296 662.448 C 796.008 662.529 795.635 662.611 795.224 662.684 C 792.330 664.583 789.457 666.060 787.029 667.201 C 786.189 667.595 785.209 668.108 784.155 668.692 C 780.116 670.929 774.973 673.487 770.841 673.373 C 766.870 673.264 763.720 671.442 761.342 667.904 C 757.022 667.930 752.694 666.793 748.336 665.835 C 744.269 664.940 740.142 664.405 736.058 663.801 C 734.463 665.024 732.522 665.494 730.561 665.858 C 728.535 666.234 726.205 665.900 723.906 664.488 C 720.103 665.502 716.083 666.417 712.146 667.759 C 704.347 670.419 696.455 673.756 688.770 671.854 C 688.514 672.102 688.249 672.311 688.008 672.511 C 686.886 673.440 681.737 677.512 679.506 677.109 C 673.545 676.030 667.582 670.719 661.860 666.118 C 658.800 665.431 655.950 664.584 653.419 663.944 C 652.082 663.607 650.751 663.316 649.575 662.717 C 644.631 665.110 637.978 670.516 636.135 672.926 C 636.054 673.033 635.913 673.281 635.715 673.609 C 634.653 675.370 632.224 679.082 630.277 678.604 C 628.001 678.047 622.567 674.816 620.788 673.763 C 617.965 672.093 615.095 670.143 612.224 668.157 C 608.107 665.309 603.802 662.738 599.808 660.434 C 595.421 660.651 591.428 660.486 588.178 660.441 C 586.720 660.958 585.151 661.245 583.518 661.537 C 581.872 661.832 579.845 661.926 577.718 661.984 C 575.587 662.042 573.382 662.229 571.352 662.453 C 570.623 663.037 569.813 663.585 569.020 664.232 C 564.625 667.819 560.196 671.137 556.143 675.108 C 555.933 674.702 555.617 674.362 555.391 673.969 C 554.031 674.657 552.199 674.780 549.922 674.927 C 537.301 675.743 522.357 676.480 510.395 671.540 C 506.598 669.972 502.409 668.565 498.788 666.168 C 496.298 668.656 492.901 669.985 490.562 672.259 C 488.724 670.939 486.601 669.946 484.651 668.661 C 479.528 665.286 474.371 662.331 468.360 661.468 C 463.559 662.364 458.691 663.094 453.804 663.959 C 450.951 665.445 447.197 667.341 443.931 669.122 C 439.873 671.334 436.493 673.147 436.049 673.052 C 433.002 672.401 428.210 670.460 424.795 668.388 C 424.283 668.429 423.766 668.396 423.251 668.413 C 418.521 668.571 414.526 666.843 410.231 665.604 C 410.232 665.602 410.232 665.602 410.230 665.604 C 407.174 664.629 404.159 663.513 400.875 663.016 C 393.852 661.951 386.728 661.987 379.571 662.178 C 379.574 662.174 379.574 662.174 379.570 662.178 C 377.280 662.223 374.987 662.383 372.711 662.248 C 364.360 665.890 354.125 667.181 349.251 674.660 C 344.421 671.370 339.486 666.603 335.294 661.441 C 334.503 660.467 333.641 659.567 332.959 658.573 C 332.219 658.625 331.475 658.622 330.729 658.655 C 319.792 659.144 310.261 661.728 300.910 664.331 C 299.943 664.600 298.975 664.860 298.007 665.108 C 296.572 668.022 295.268 670.895 293.114 673.522 C 290.657 671.181 287.612 669.816 284.944 668.177 C 275.655 671.300 265.583 670.723 253.430 667.854 C 252.244 667.574 251.113 667.343 250.190 666.777 C 246.411 669.564 242.263 671.803 237.844 672.586 C 236.790 669.565 234.353 667.359 232.543 664.726 C 229.568 660.396 230.383 663.094 227.578 658.798 C 227.422 658.559 227.256 658.333 227.114 658.097 C 223.050 658.343 219.116 658.127 216.387 658.109 C 205.639 664.175 197.090 670.569 183.499 669.865 C 180.758 669.723 177.845 670.004 174.878 670.177 C 172.009 670.344 169.085 670.586 166.209 670.505 C 165.130 670.819 164.050 670.935 163.013 671.082 C 159.917 671.522 157.296 670.919 154.782 669.480 C 153.041 669.089 151.359 668.532 149.740 667.736 C 145.990 665.893 140.652 662.247 135.896 658.361 C 133.918 658.576 131.546 658.598 128.953 658.507 C 119.458 662.898 122.701 673.647 116.252 678.275 C 110.604 671.406 104.502 665.686 99.865 658.567 C 97.577 658.713 95.482 658.726 93.692 658.705 C 93.477 658.801 93.022 658.929 92.804 659.018 C 85.190 661.762 77.681 664.774 70.412 665.236 C 69.312 666.953 68.370 668.365 67.825 669.277 C 66.926 670.785 66.071 674.594 63.970 675.058 C 61.963 671.539 57.747 669.228 54.207 666.181 C 45.449 667.405 36.248 667.100 27.935 667.122 C 27.100 667.125 26.281 667.143 25.493 667.007 C 22.897 669.837 19.473 671.761 17.326 674.411 C 10.770 682.501 -2.616 668.349 -2.907 668.056 C -2.903 668.052 -2.904 668.051 -2.911 668.052 C -2.897 667.422 -2.794 666.785 -2.693 666.143 C -5.981 668.027 -9.190 669.662 -13.500 669.673 Z"/>
</svg>
